<?xml version="1.0" ?><svg enable-background="new 0 0 32 32" version="1.1" viewBox="0 0 32 32" xml:space="preserve" xmlns="http://www.w3.org/2000/svg" xmlns:xlink="http://www.w3.org/1999/xlink"><g id="Circles"><g><circle cx="16" cy="16.036" fill="#3498D8" r="16"/></g></g><g id="Icons_Outline"><path d="M11.048,17.778c-0.481,0-0.846,0.113-1.093,0.339c-0.248,0.227-0.372,0.519-0.372,0.878   c0,0.768,0.496,1.162,1.486,1.185l-0.398,2.013c-0.028,0.158-0.062,0.34-0.103,0.544c-0.039,0.205-0.059,0.39-0.059,0.555   c0,0.323,0.104,0.585,0.312,0.786c0.209,0.201,0.496,0.302,0.861,0.302c0.46,0,0.76-0.135,0.899-0.404   c0.14-0.269,0.274-0.709,0.404-1.318l0.506-2.477h2.38l-0.398,2.013c-0.101,0.438-0.151,0.805-0.151,1.099   c0,0.323,0.104,0.585,0.312,0.786s0.491,0.302,0.851,0.302c0.323,0,0.57-0.081,0.743-0.242c0.172-0.162,0.289-0.351,0.35-0.565   c0.062-0.216,0.131-0.521,0.21-0.915l0.506-2.477h1.658c0.488,0,0.853-0.109,1.093-0.329c0.241-0.219,0.361-0.504,0.361-0.855   s-0.122-0.643-0.366-0.872c-0.244-0.23-0.606-0.345-1.088-0.345h-1.195l0.646-3.134h0.549c0.481,0,0.844-0.107,1.088-0.323   c0.244-0.215,0.366-0.502,0.366-0.861c0-0.774-0.514-1.173-1.54-1.194l0.398-2.024c0.007-0.036,0.025-0.12,0.054-0.253   c0.029-0.133,0.052-0.271,0.07-0.415c0.018-0.144,0.026-0.291,0.026-0.441c0-0.33-0.102-0.592-0.307-0.786   c-0.204-0.193-0.493-0.291-0.866-0.291c-0.323,0-0.569,0.079-0.738,0.237c-0.168,0.158-0.285,0.352-0.35,0.581   c-0.064,0.23-0.133,0.531-0.204,0.905l-0.518,2.465h-2.357l0.398-2.002c0.121-0.653,0.183-1.016,0.183-1.088   c0-0.315-0.101-0.574-0.302-0.775s-0.491-0.302-0.872-0.302c-0.272,0-0.493,0.062-0.662,0.184s-0.302,0.302-0.398,0.538   c-0.097,0.237-0.185,0.563-0.264,0.98l-0.506,2.465h-1.604c-0.481,0-0.846,0.11-1.093,0.329c-0.248,0.219-0.372,0.508-0.372,0.866   c0,0.338,0.128,0.623,0.383,0.856c0.255,0.233,0.615,0.35,1.082,0.35h1.12l-0.614,3.134H11.048z M14.59,14.644h2.38l-0.613,3.134   h-2.401L14.59,14.644z" fill="#FFFFFF"/></g></svg>