<?xml version="1.0" encoding="utf-8"?>
<!-- Generator: Adobe Illustrator 16.0.0, SVG Export Plug-In . SVG Version: 6.00 Build 0)  -->
<!DOCTYPE svg PUBLIC "-//W3C//DTD SVG 1.1//EN" "http://www.w3.org/Graphics/SVG/1.1/DTD/svg11.dtd">
<svg version="1.1" id="Layer_1" xmlns="http://www.w3.org/2000/svg" xmlns:xlink="http://www.w3.org/1999/xlink" x="0px" y="0px"
	 width="142px" height="142px" viewBox="0 0 142 142" enable-background="new 0 0 142 142" xml:space="preserve">
<g>
	<polygon fill="#7E7E7E" points="52.04,49.581 91.249,49.581 97.308,54.648 100.775,57.786 104.355,61.201 108.485,65.55 
		111.845,69.516 115.04,73.978 117.957,79.043 119.501,81.854 121.702,87.304 123.3,92.592 124.016,98.373 124.401,105.479 
		124.401,108.563 124.401,110.269 123.961,111.591 123.245,113.96 122.805,115.886 121.207,119.632 119.281,123.65 117.352,126.293 
		113.883,129.598 108.32,134.059 103.916,136.042 99.455,137.915 94.278,139.18 88.718,140.118 80.896,140.559 61.072,140.559 
		52.536,139.732 47.524,138.576 43.229,137.53 38.604,135.768 33.316,132.794 28.195,128.829 23.734,123.265 20.981,117.594 
		19.439,109.623 18.834,100.426 19.164,96.578 20.1,91.839 21.091,87.768 22.744,84.133 24.947,79.23 27.59,74.714 30.783,70.145 
		35.74,63.872 43.725,56.046 49.287,51.2 	"/>
	<polygon fill="#7E7E7E" points="53.801,46.112 89.651,46.112 90.478,46.112 90.478,43.964 90.478,42.312 90.478,41.156 
		88.991,41.156 53.801,41.156 52.645,41.156 52.645,43.634 52.645,46.112 	"/>
	<polygon fill="#7E7E7E" points="51.819,37.686 91.139,37.686 91.965,37.686 93.286,33.06 96.095,26.947 98.406,21.661 
		101.713,15.548 104.023,10.757 104.023,8.279 103.033,7.123 101.382,7.123 99.068,7.123 96.425,8.279 94.772,9.271 92.626,10.592 
		90.478,12.905 88.991,13.73 87.173,13.73 84.199,13.07 82.053,11.583 79.904,9.6 77.922,7.123 75.609,3.983 74.451,3.157 
		73.295,2.332 71.562,2.332 69.496,2.332 67.844,2.332 66.853,3.488 65.201,4.81 63.548,6.626 61.235,8.609 59.418,9.766 
		57.271,10.757 54.462,11.749 51.819,11.749 48.02,10.922 45.21,9.435 42.071,8.609 39.593,7.949 38.437,8.279 36.95,9.766 
		36.95,11.088 37.776,13.07 42.567,21.496 47.028,29.425 	"/>
	<polygon fill="#FFFFFF" points="70.321,64.78 75.691,64.78 75.691,69.737 76.353,69.737 77.922,69.737 81.556,70.894 
		83.539,71.554 86.017,74.032 88.081,77.172 88.495,79.814 88.495,81.301 79.41,81.301 78.499,80.475 78.005,78.988 76.849,77.749 
		75.857,77.336 75.444,77.172 75.444,87.826 76.188,88.403 77.096,88.403 78.912,88.818 81.062,89.479 83.373,90.8 85.604,92.534 
		87.752,94.683 89.734,99.143 89.734,102.943 89.734,106.577 88.908,109.055 86.926,111.616 84.365,113.599 81.309,115.581 
		78.334,116.407 76.683,116.407 75.691,116.407 75.691,123.098 70.321,123.098 70.321,116.903 70.321,116.077 68.917,116.407 
		67.431,116.159 64.952,115.746 62.64,114.259 59.914,112.111 57.849,109.551 56.775,107.238 55.619,104.595 55.619,102.529 
		66.44,102.529 66.44,104.1 66.771,105.504 67.513,106.742 68.505,107.65 69.496,108.229 69.909,108.561 70.321,108.973 
		70.321,96.664 68.835,96.004 67.266,95.755 64.54,95.069 60.988,91.873 59.336,90.388 57.766,87.578 57.105,84.274 57.354,80.97 
		57.766,78.245 58.592,75.684 60.162,73.95 61.814,72.297 64.54,70.81 67.266,69.655 69.331,69.489 70.157,69.489 	"/>
	<polygon fill="#7E7E7E" points="70.239,77.172 70.239,86.587 68.587,86.587 67.019,85.431 65.944,84.771 64.787,82.704 
		64.787,80.475 65.365,78.823 66.853,77.915 68.753,77.172 	"/>
	<polyline fill="#7E7E7E" points="75.526,97.904 75.526,109.468 76.849,109.468 78.169,108.89 80.399,107.238 81.721,105.586 
		82.629,103.108 81.97,100.712 80.813,99.721 79.492,98.73 77.84,97.904 75.197,97.904 	"/>
</g>
<path fill="#7E7E7E" d="M-90.342,120.395l4.345-3.578h1.853l1.094-0.711v-1.641l1.23-1.504l1.094-1.094h2.323
	c0,0,1.23-0.82,1.777-0.957c0.546-0.137,2.732,0,2.732,0l0.821-3.006l-1.367-1.23h-2.187h-3.145h-1.64l-2.598-0.82l-0.895-0.684
	v-2.186l0.758-1.504l-0.758-0.957l-0.608-1.23l2.733-2.324l0.136-1.912l-0.545-2.051l-1.716-0.957l-2.249-1.641l-1.504-0.957
	l-0.41-0.955h1.914l2.249,0.682l1.988,0.273l2.05,1.777l2.188,0.547h1.776l5.194-0.547h1.504h2.05l1.776-1.094l2.188-1.639
	l0.957-1.504h1.777h1.64l1.503,0.957l1.914-0.957l2.05-0.684l2.461-0.82h1.504l2.05-2.051l3.007-1.777l1.093-2.598l-0.683-1.912
	l-1.094-1.641l-3.964-3.416l-2.187-4.375l0.684-1.641l1.229-1.913v-2.188l1.641-2.4l2.46,0.897l1.913,0.137h2.188l1.504-1.034
	v-3.066l-1.914-0.957l-2.46-0.957l-0.41-0.82L-46.146,52l0.41-1.367l1.641-1.64h1.503h1.366l1.641-1.504l1.914-1.64l1.23-2.187
	v-1.504l-1.641-1.23l-2.051-0.683h-2.46h-4.236l-3.007,1.094l-1.915,0.273h-0.819l-0.137-1.367l2.188-1.094l2.05-3.007l0.547-1.503
	l-0.137-1.23l-1.914-1.913l-5.878-1.367l-3.007-2.187h-0.683l-1.913-1.777h-2.188l-0.684,1.093l-1.366-2.187l-2.188-1.914
	l1.292-1.914h2.398l4.101-0.684l1.504-0.82l1.094-0.684l-1.094-1.367h-2.598h-2.46h-2.945h-2.521l-3.281,0.82l-2.87,1.367
	l-1.503-0.547h-1.504l-1.641,0.137l-0.684,1.503l-1.776,1.094l-2.051,0.546l-2.187,0.957l-0.684,0.683l-1.23,0.957h-1.366h-2.05
	l-1.094,0.684l-2.734-2.46l-1.64-0.82l-2.05-2.324h-2.461l-6.15,0.82l-4.374,0.41l-4.921,0.547l-3.144-0.273l-1.367-1.093
	l-1.23-3.007h1.641l0.273-1.367l-0.82-2.05l-1.914-1.777h-3.554h-3.554l-1.64-1.367c0,0-1.23-0.136-1.777,0
	c-0.547,0.137-2.05-0.061-2.05-0.061l-1.367-3.766V4.161l-0.957-1.777l-2.87,1.094l-2.187,1.366l-0.683,1.367v1.503l0.683,1.914
	l1.23,0.273l1.367-0.684h1.367l1.23,1.23l0.41,2.05l-1.094,0.41l-2.46-1.503l-1.23-0.547l-0.684,1.777l-0.82,1.094h-1.367
	l-2.734,0.41l-2.733,1.094l-4.237,1.777l-1.23,1.367v1.64l1.093,1.641l0.41,2.46v2.733l0.41,2.46l0.683,0.958l0.273,1.23
	l-0.82,2.187l-2.05,2.187l-1.777,0.41l-2.05,0.547v-3.28l-0.957-1.094l-1.641-1.913v-1.367l1.094-2.187l1.503-1.503l1.64-1.094
	l1.23-1.367l0.137-1.503l-0.273-2.46l-0.684-1.503l-0.137-2.324l-0.684-1.64l-1.367-0.82v-1.504l1.367-1.503h2.46l2.597-1.914
	l0.82-1.23l-1.504-0.684l-2.46,1.367l-2.187,0.957l-1.913,0.547c0,0-1.641,1.914-1.641,2.597c0,0.684-0.82,2.324-0.82,2.324
	l-3.554,2.324l-2.87,3.417l-2.733,3.554l-0.82,1.777v2.05l0.82,1.777l-0.82,2.46l-0.957,3.554v0.82h3.144l5.74,10.115l0.411,2.734
	l-1.094,1.503l-0.136,2.46l0.683,1.64l2.05,2.597l3.827,1.366h3.827l3.417,0.273h2.597l2.597-0.136l1.776-0.684l2.05,0.547
	l2.46,0.82l3.417,2.733l2.597,3.554l1.64,1.094h2.46h3.144l2.187,1.367h1.64l0.957-1.367h2.188l3.553,0.684l1.777-0.684l1.504,1.776
	l0.546,1.504l-0.546,2.188l-1.094,3.279l-1.777,1.504l-1.503,0.137l-0.547,1.641l-0.41,2.596l0.136,2.598l-0.273,3.691l0.547,3.143
	l1.777,3.145l0.957,3.006v1.777l-2.46,3.965l-0.137,1.502l0.684,1.367l1.64,0.547h0.957l-0.41,0.82l0.957,1.23l0.684,0.957
	l0.273,1.777l0.137,1.775l1.913,3.281l0.547,2.324l0.273,1.775l0.41,1.641l1.777,1.641l2.734,2.188l3.828,1.42l3.554,0.902"/>
</svg>
