<?xml version="1.0" encoding="utf-8"?>
<!-- Generator: Adobe Illustrator 16.0.0, SVG Export Plug-In . SVG Version: 6.00 Build 0)  -->
<!DOCTYPE svg PUBLIC "-//W3C//DTD SVG 1.1//EN" "http://www.w3.org/Graphics/SVG/1.1/DTD/svg11.dtd">
<svg version="1.1" id="Layer_1" xmlns="http://www.w3.org/2000/svg" xmlns:xlink="http://www.w3.org/1999/xlink" x="0px" y="0px"
	 width="142px" height="142px" viewBox="0 0 142 142" enable-background="new 0 0 142 142" xml:space="preserve">
<g>
	<polygon fill="#7E7E7E" points="188.707,49.633 227.916,49.633 233.975,54.701 237.442,57.839 241.022,61.254 245.152,65.603 
		248.512,69.568 251.707,74.03 254.624,79.096 256.168,81.906 258.369,87.356 259.967,92.645 260.683,98.426 261.068,105.531 
		261.068,108.615 261.068,110.321 260.628,111.644 259.912,114.013 259.472,115.938 257.874,119.685 255.948,123.703 
		254.019,126.346 250.55,129.65 244.987,134.111 240.583,136.095 236.122,137.968 230.945,139.232 225.385,140.171 217.563,140.611 
		197.738,140.611 189.203,139.785 184.191,138.629 179.896,137.583 175.271,135.82 169.983,132.847 164.862,128.882 
		160.401,123.317 157.648,117.646 156.106,109.676 155.501,100.479 155.831,96.631 156.768,91.892 157.758,87.82 159.411,84.186 
		161.613,79.283 164.258,74.767 167.45,70.197 172.406,63.924 180.392,56.099 185.954,51.253 	"/>
	<polygon fill="#7E7E7E" points="190.468,46.165 226.318,46.165 227.145,46.165 227.145,44.017 227.145,42.364 227.145,41.208 
		225.658,41.208 190.468,41.208 189.313,41.208 189.313,43.687 189.313,46.165 	"/>
	<polygon fill="#7E7E7E" points="188.486,37.739 227.806,37.739 228.632,37.739 229.953,33.113 232.762,27 235.073,21.714 
		238.38,15.601 240.69,10.81 240.69,8.332 239.7,7.175 238.049,7.175 235.735,7.175 233.092,8.332 231.439,9.323 229.293,10.645 
		227.145,12.958 225.658,13.783 223.84,13.783 220.866,13.123 218.72,11.635 216.571,9.653 214.589,7.175 212.276,4.036 
		211.118,3.21 209.962,2.384 208.229,2.384 206.162,2.384 204.512,2.384 203.52,3.541 201.867,4.863 200.215,6.679 197.902,8.662 
		196.086,9.819 193.938,10.81 191.129,11.801 188.486,11.801 184.687,10.975 181.877,9.488 178.738,8.662 176.26,8.002 
		175.104,8.332 173.617,9.819 173.617,11.141 174.443,13.123 179.234,21.549 183.695,29.478 	"/>
	<polygon fill="#FFFFFF" points="206.988,64.833 212.358,64.833 212.358,69.79 213.02,69.79 214.589,69.79 218.223,70.946 
		220.206,71.606 222.684,74.085 224.748,77.225 225.162,79.867 225.162,81.354 216.077,81.354 215.166,80.527 214.672,79.041 
		213.516,77.802 212.524,77.389 212.111,77.225 212.111,87.879 212.854,88.456 213.763,88.456 215.579,88.871 217.729,89.531 
		220.04,90.853 222.271,92.587 224.419,94.735 226.401,99.195 226.401,102.996 226.401,106.63 225.575,109.107 223.593,111.669 
		221.032,113.651 217.976,115.634 215.001,116.46 213.35,116.46 212.358,116.46 212.358,123.15 206.988,123.15 206.988,116.956 
		206.988,116.13 205.584,116.46 204.098,116.212 201.619,115.799 199.307,114.312 196.58,112.164 194.516,109.604 193.442,107.291 
		192.285,104.647 192.285,102.582 203.107,102.582 203.107,104.152 203.438,105.557 204.18,106.795 205.172,107.703 
		206.162,108.282 206.576,108.613 206.988,109.025 206.988,96.717 205.502,96.057 203.934,95.808 201.207,95.122 197.655,91.926 
		196.003,90.44 194.434,87.631 193.771,84.327 194.021,81.022 194.434,78.298 195.26,75.736 196.829,74.003 198.48,72.35 
		201.207,70.862 203.934,69.708 205.998,69.542 206.824,69.542 	"/>
	<polygon fill="#7E7E7E" points="206.906,77.225 206.906,86.64 205.254,86.64 203.686,85.483 202.611,84.823 201.454,82.757 
		201.454,80.527 202.032,78.876 203.52,77.968 205.42,77.225 	"/>
	<polyline fill="#7E7E7E" points="212.193,97.957 212.193,109.521 213.516,109.521 214.836,108.942 217.066,107.291 
		218.388,105.639 219.296,103.161 218.637,100.765 217.479,99.773 216.159,98.783 214.507,97.957 211.864,97.957 	"/>
</g>
<path fill="#7E7E7E" d="M-77.234,122.447l4.345-3.578h1.853l1.094-0.711v-1.641l1.23-1.504l1.094-1.094h2.323
	c0,0,1.23-0.82,1.777-0.957c0.546-0.137,2.732,0,2.732,0l0.821-3.006l-1.367-1.23h-2.187h-3.145h-1.64l-2.598-0.82l-0.895-0.684
	v-2.186l0.758-1.504l-0.758-0.957l-0.608-1.23l2.733-2.324l0.136-1.912l-0.545-2.051l-1.716-0.957l-2.249-1.641l-1.504-0.957
	l-0.41-0.955h1.914l2.249,0.682l1.988,0.273l2.05,1.777l2.188,0.547h1.776l5.194-0.547h1.504h2.05l1.776-1.094l2.188-1.639
	l0.957-1.504h1.777h1.64l1.503,0.957l1.914-0.957l2.05-0.684l2.461-0.82h1.504l2.05-2.051l3.007-1.777l1.093-2.598l-0.683-1.912
	l-1.094-1.641l-3.964-3.416l-2.187-4.375l0.684-1.641l1.229-1.912v-2.188l1.641-2.4l2.46,0.897l1.913,0.137h2.188l1.504-1.034
	v-3.066l-1.914-0.957l-2.46-0.957l-0.41-0.82l-0.82-1.777l0.41-1.367l1.641-1.64h1.503h1.366l1.641-1.504l1.914-1.64l1.23-2.187
	v-1.504l-1.641-1.23l-2.051-0.683h-2.46h-4.236l-3.007,1.094l-1.915,0.273h-0.819l-0.137-1.367l2.188-1.094l2.05-3.007l0.547-1.503
	l-0.137-1.23l-1.914-1.913l-5.878-1.367l-3.007-2.187h-0.683l-1.913-1.777h-2.188l-0.684,1.093l-1.366-2.187l-2.188-1.914
	l1.292-1.914h2.398l4.101-0.684l1.504-0.82l1.094-0.684l-1.094-1.367h-2.598h-2.46h-2.945h-2.521l-3.281,0.82l-2.87,1.367
	l-1.503-0.547h-1.504l-1.641,0.137l-0.684,1.503l-1.776,1.094l-2.051,0.546l-2.187,0.957l-0.684,0.683l-1.23,0.957h-1.366h-2.05
	l-1.094,0.684l-2.734-2.46l-1.64-0.82l-2.05-2.324h-2.461l-6.15,0.82l-4.374,0.41l-4.921,0.547l-3.144-0.273l-1.367-1.093
	l-1.23-3.007h1.641l0.273-1.367l-0.82-2.05l-1.914-1.777h-3.554h-3.554l-1.64-1.367c0,0-1.23-0.136-1.777,0
	c-0.547,0.137-2.05-0.061-2.05-0.061l-1.367-3.766V6.214l-0.957-1.777l-2.87,1.094l-2.187,1.366l-0.683,1.367v1.503l0.683,1.914
	l1.23,0.273l1.367-0.684h1.367l1.23,1.23l0.41,2.05l-1.094,0.41l-2.46-1.503l-1.23-0.547l-0.684,1.777l-0.82,1.094h-1.367
	l-2.734,0.41l-2.733,1.094l-4.237,1.777l-1.23,1.367v1.64l1.093,1.641l0.41,2.46v2.733l0.41,2.46l0.683,0.958l0.273,1.23
	l-0.82,2.187l-2.05,2.187l-1.777,0.41l-2.05,0.547v-3.28l-0.957-1.094l-1.641-1.913v-1.367l1.094-2.187l1.503-1.503l1.64-1.094
	l1.23-1.367l0.137-1.503l-0.273-2.46l-0.684-1.503l-0.137-2.324l-0.684-1.64l-1.367-0.82v-1.504l1.367-1.503h2.46l2.597-1.914
	l0.82-1.23l-1.504-0.684l-2.46,1.367l-2.187,0.957l-1.913,0.547c0,0-1.641,1.914-1.641,2.597c0,0.684-0.82,2.324-0.82,2.324
	l-3.554,2.324l-2.87,3.417l-2.733,3.554l-0.82,1.777v2.05l0.82,1.777l-0.82,2.46l-0.957,3.554v0.82h3.144l5.74,10.115l0.411,2.734
	l-1.094,1.503l-0.136,2.46l0.683,1.64l2.05,2.597l3.827,1.366h3.827l3.417,0.273h2.597l2.597-0.136l1.776-0.684l2.05,0.547
	l2.46,0.82l3.417,2.733l2.597,3.553l1.64,1.094h2.46h3.144l2.187,1.367h1.64l0.957-1.367h2.188l3.553,0.684l1.777-0.684l1.504,1.777
	l0.546,1.504l-0.546,2.188l-1.094,3.279l-1.777,1.504l-1.503,0.137l-0.547,1.641l-0.41,2.596l0.136,2.598l-0.273,3.691l0.547,3.143
	l1.777,3.145l0.957,3.006v1.777l-2.46,3.965l-0.137,1.502l0.684,1.367l1.64,0.547h0.957l-0.41,0.82l0.957,1.23l0.684,0.957
	l0.273,1.777l0.137,1.775l1.913,3.281l0.547,2.324l0.273,1.775l0.41,1.641l1.777,1.641l2.733,2.188l3.828,1.42l3.554,0.902"/>
<path fill="none" stroke="#7E7E7E" stroke-width="7" stroke-miterlimit="10" d="M127.105-72.93c0,32.423-29.394,58.71-65.648,58.71
	c-22.147,0-41.733-9.808-53.623-24.832C0.26-48.624-4.193-60.313-4.191-72.93c0-32.427,29.392-58.712,65.648-58.712
	C97.712-131.642,127.105-105.356,127.105-72.93z"/>
<polygon fill="none" stroke="#7E7E7E" stroke-width="4" stroke-miterlimit="10" points="-4.191,-16.2 7.834,-39.052 13.089,-33.241 
	18.54,-28.508 20.974,-26.71 "/>
<circle fill="none" cx="37.708" cy="73.983" r="6.813"/>
<circle fill="none" cx="37.708" cy="73.983" r="6.812"/>
<circle fill="#7E7E7E" cx="27.624" cy="-69.834" r="6.812"/>
<circle fill="#7E7E7E" cx="60.589" cy="-70.841" r="6.565"/>
<circle fill="#7E7E7E" cx="91.803" cy="-70.082" r="6.564"/>
<g id="Page-1">
	<g id="icon-11-baseball-set">
		<path id="baseball-set" fill="#7E7E7E" d="M-45.005,239.951c-1.148-10.964-9.858-19.679-20.826-20.827l0,0
			c0.092,0.813,0.133,1.637,0.133,2.472c0,12.943-10.489,23.43-23.429,23.43c-0.834,0-1.663-0.043-2.472-0.128
			c1.149,10.966,9.859,19.678,20.826,20.826c-0.091-0.815-0.133-1.637-0.133-2.479c0-12.934,10.49-23.429,23.43-23.429
			C-46.642,239.816-45.818,239.862-45.005,239.951L-45.005,239.951z M-45.033,245.186c-1.263,10.73-9.774,19.242-20.503,20.508
			c-0.106-0.799-0.162-1.613-0.162-2.448c0-10.059,8.156-18.22,18.223-18.22C-46.646,245.025-45.832,245.084-45.033,245.186
			L-45.033,245.186z M-71.066,219.153c-10.729,1.262-19.241,9.773-20.501,20.503c0.797,0.111,1.61,0.16,2.44,0.16
			c10.066,0,18.222-8.154,18.222-18.221C-70.905,220.77-70.96,219.957-71.066,219.153L-71.066,219.153L-71.066,219.153z
			 M-121.354,196.289l-38.474,43.6l0,0l11.897,11.896l43.605-38.468L-121.354,196.289L-121.354,196.289L-121.354,196.289z
			 M-117.9,192.379l50.824-57.607c6.269-7.099,16.698-7.408,23.354-0.753l1.662,1.663c6.655,6.655,6.32,17.114-0.752,23.354
			l-57.603,50.829L-117.9,192.379L-117.9,192.379L-117.9,192.379z M-151.495,255.589c0.961,2.747,0.351,5.925-1.841,8.115
			c-3.07,3.07-7.997,3.051-11.048,0l-7.362-7.362c-3.035-3.041-3.046-7.991,0-11.042c2.206-2.206,5.369-2.819,8.109-1.853
			L-151.495,255.589L-151.495,255.589L-151.495,255.589z"/>
	</g>
</g>
<path fill-rule="evenodd" clip-rule="evenodd" fill="#7E7E7E" d="M198.19,188.673h44.309c0.973,0,1.766-0.792,1.766-1.767
	s-0.793-1.764-1.766-1.764H198.19c-0.977,0-1.766,0.791-1.766,1.764C196.423,187.881,197.214,188.673,198.19,188.673z
	 M198.19,201.725h44.309c0.973,0,1.766-0.791,1.766-1.766s-0.793-1.766-1.766-1.766H198.19c-0.977,0-1.766,0.791-1.766,1.766
	C196.423,200.934,197.214,201.725,198.19,201.725z M198.19,214.777h44.309c0.973,0,1.766-0.793,1.766-1.768
	s-0.793-1.766-1.766-1.766H198.19c-0.977,0-1.766,0.791-1.766,1.766S197.214,214.777,198.19,214.777z M235.88,224.295
	c-4.029,0-4.029,6.092,0,6.092h4.916c4.027,0,4.027-6.092,0-6.092H235.88L235.88,224.295z M199.045,224.295
	c-4.028,0-4.028,6.092,0,6.092h4.915c4.027,0,4.027-6.092,0-6.092H199.045L199.045,224.295z M217.462,224.295
	c-4.029,0-4.029,6.092,0,6.092h4.916c4.027,0,4.027-6.092,0-6.092H217.462L217.462,224.295z M156.103,225.759
	c-6.129,3.437-8.773,12.863-9.414,15.89c-0.542,9.752,0.518,19.67,1.348,29.337c3.663,1.181,14.74,2.162,22.817,0.748
	c2.321-6.43,1.582-11.254,2.849-18.499c0.814-4.668,4.729-9.534,7.646-13.035c1.504-1.804,1.877-4.513,0.182-6.139
	c-1.697-1.623-4.506-1.135-6.234,0.453c-2.828,2.601-5.937,6.728-8.689,11.452c-2.416,4.153-10.506,2.118-10.504-2.883V225.759
	L156.103,225.759z M225.485,239.272c2.418,6.8,4.395,13.443,5.979,20.165c0.416,1.766,0.807,3.536,1.168,5.313
	c-1.973-1.995-4.242-3.872-7.258-5.79c-1.98-1.259-4.609-0.674-5.867,1.309c-1.26,1.98-0.674,4.607,1.307,5.867
	c9.729,6.779,14.186,15.586,17.434,20.776c9.738,1.411,23.25-2.528,25.811-6.487c-0.025-8.863-0.979-19.657-4.863-27.706
	c-1.021-2.11-3.561-2.996-5.67-1.977c-0.615,0.296-1.125,0.721-1.516,1.226c-0.926-1.202-2.465-1.865-4.064-1.596
	c-1.072,0.181-1.979,0.747-2.609,1.533c-0.924-1.212-2.473-1.883-4.08-1.613c-1.221,0.207-2.232,0.914-2.855,1.879
	c-1.4-5.257-3.025-10.467-4.9-15.732c-0.783-2.214-3.213-3.373-5.426-2.591S224.7,237.06,225.485,239.272z M274.403,215.42
	c0-1.525,1.236-2.762,2.762-2.762s2.762,1.236,2.762,2.762c0,1.524-1.236,2.762-2.762,2.762S274.403,216.945,274.403,215.42z
	 M176.517,256.11h42.813c-1,0.578-1.877,1.397-2.533,2.433c-0.912,1.438-1.268,3.078-1.127,4.662h-39.836
	C176.06,260.874,176.208,258.536,176.517,256.11z M284.62,254.377c0,4.863-3.967,8.828-8.828,8.828h-9.975
	c-0.459-2.431-1.053-4.815-1.811-7.094h3.889c0.945,0,1.732-0.788,1.732-1.734c0-29.414,0-48.5,0-77.914
	c0-0.945-0.787-1.732-1.732-1.732c-34.279,0-59.513,0-93.793,0c-0.947,0-1.734,0.787-1.734,1.732v56.405
	c-3.313,3.262-6.24,7.541-8.535,11.483c-0.768,1.319-4.521,0.438-4.521-1.269v-22.808v-43.813c0-4.862,3.964-8.826,8.827-8.826
	c39.115,0,68.537,0,107.652,0c4.861,0,8.828,3.964,8.828,8.826V254.377z"/>
<g>
	<circle fill="none" stroke="#7E7E7E" stroke-width="4" cx="71.027" cy="71.666" r="67.681"/>
	<polygon fill="#7E7E7E" points="13.541,40.597 15.668,41.662 17.797,42.877 17.797,44.702 17.797,47.742 17.797,51.846 
		17.037,56.558 17.797,58.99 19.317,59.598 21.293,60.662 22.509,63.095 23.573,64.919 24.637,67.144 25.701,69.935 27.525,71.666 
		29.349,74.494 31.325,75.863 33.757,75.863 35.733,75.863 37.102,78.143 39.23,79.208 42.117,79.208 43.333,81.032 45.309,82.704 
		48.502,85.592 50.174,87.567 50.174,88.936 48.198,92.584 46.981,95.472 46.678,98.359 47.438,103.375 48.198,104.895 
		51.694,108.848 54.126,111.433 55.494,114.473 55.494,119.032 55.494,122.681 56.407,123.439 56.407,125.72 56.407,128.607 
		56.407,130.889 57.318,132.256 57.318,134.232 57.318,135.448 62.486,136.514 64.31,134.537 65.375,132.256 67.199,128.607 
		69.223,126.481 73.888,124.961 76.623,122.071 79.358,120.247 81.03,118.273 82.702,118.121 84.526,117.056 85.744,114.32 
		87.87,111.888 89.847,108.089 92.584,105.199 92.584,102.312 92.584,98.815 90.151,98.055 86.351,98.055 83.007,98.055 
		81.334,97.904 78.447,95.624 75.255,93.19 71.759,89.847 69.223,89.392 68.111,88.555 65.375,86.959 62.334,86.351 59.903,85.743 
		57.318,85.743 54.887,85.592 53.063,85.592 51.542,84.224 50.629,82.552 50.478,81.182 49.414,80.88 48.958,79.967 48.958,78.599 
		47.894,77.079 46.375,75.863 45.158,75.103 44.094,72.52 43.182,71.666 41.662,72.367 39.382,73.278 36.797,72.974 35.885,71.666 
		35.733,69.783 36.646,66.438 38.469,64.31 40.293,63.55 43.637,63.095 46.83,63.854 48.198,65.222 48.502,67.144 50.022,67.144 
		51.542,66.287 51.542,64.006 51.391,62.03 54.583,59.142 56.862,56.558 58.079,54.43 58.231,51.542 59.142,49.566 61.271,47.286 
		63.55,45.766 65.678,45.006 67.502,45.918 67.654,48.502 69.084,49.566 71.027,48.046 72.67,46.525 73.583,45.158 73.735,43.333 
		71.759,42.574 71.027,42.574 70.238,40.597 69.223,40.597 69.935,39.381 72.367,39.381 75.56,39.381 76.623,41.053 76.774,42.574 
		77.384,43.79 78.599,43.79 79.814,43.333 80.423,42.27 80.575,39.381 80.575,37.861 78.447,35.886 76.774,34.365 74.646,34.365 
		73.278,33.453 72.518,31.933 71.759,29.197 71.027,27.221 69.223,27.221 66.134,27.221 64.31,25.853 62.03,24.941 60.206,24.941 
		57.926,24.941 56.102,25.701 56.102,28.589 55.95,31.781 55.95,33.909 55.95,35.581 55.95,36.341 53.821,35.886 51.542,35.581 
		49.414,34.518 48.046,33.453 46.222,32.693 44.094,32.237 42.878,32.237 42.726,29.805 43.333,27.221 46.83,24.941 49.414,23.421 
		49.414,21.445 48.502,20.077 47.133,18.861 46.222,17.796 45.461,15.821 44.094,15.821 42.421,16.581 42.421,18.557 42.27,20.685 
		41.357,21.901 39.534,22.509 37.253,22.509 35.582,22.509 32.693,21.597 29.805,20.837 23.877,24.485 17.797,31.477 14.149,37.102 
			"/>
	<path fill="#7E7E7E" d="M73.278,5.789v0.608V8.98l1.216,3.952l3.496,4.864l2.281,4.56l5.927,3.497l1.977,1.064h1.977v-2.888v-2.736
		v-1.672l2.433-1.216c0,0,2.278,0,2.888,0c0.608,0,3.496-0.76,3.496-0.76l1.824-1.824l1.52-3.04l-8.742-4.947L81.486,3.985
		l-6.838,0.096L73.278,5.789z"/>
	<path fill="#7E7E7E" d="M122.681,31.477l-2.129,1.976l-0.759,2.28l-1.977,0.912c0,0-1.521,1.064-1.977,1.064
		c-0.456,0-2.585,0.912-2.585,0.912l-0.911,2.584l-0.911,2.584v3.041l2.279,1.976l3.344,1.368l0.913-0.912l0.303-3.344l0.456-1.216
		l2.281,0.152l1.672,0.76l1.367,1.824l1.824,2.736l2.888,2.432l1.37,2.584l1.974,2.128h-1.063l-3.192-0.912l-3.344-3.496
		l-2.737-2.28l-1.822-0.304l-4.562,1.064l-3.192,1.368l-3.496,4.56l-2.28,4.864l-1.063,4.257l1.672,6.84l2.737,5.168l3.646,2.735
		l3.496,0.609h5.473h0.609l1.672,0.913l0.606,2.735l-0.303,2.583l-0.151,1.977l-0.609,4.104v2.888l-1.824,4.105l-1.063,2.278
		l-0.304,3.042l0.456,3.039l0.607,2.127l0.913,1.369l7.903-12.16l7.589-23.511l-0.156-12.884l-2.896-13.604l-4.537-10.732
		l-6.235-9.693L122.681,31.477z"/>
</g>
</svg>
