<?xml version="1.0" encoding="utf-8"?>
<!-- Generator: Adobe Illustrator 16.0.0, SVG Export Plug-In . SVG Version: 6.00 Build 0)  -->
<!DOCTYPE svg PUBLIC "-//W3C//DTD SVG 1.1//EN" "http://www.w3.org/Graphics/SVG/1.1/DTD/svg11.dtd">
<svg version="1.1" id="Layer_1" xmlns="http://www.w3.org/2000/svg" xmlns:xlink="http://www.w3.org/1999/xlink" x="0px" y="0px"
	 width="64.7px" height="61.368px" viewBox="0 0 64.7 61.368" enable-background="new 0 0 64.7 61.368" xml:space="preserve">
<g>
	<g>
		<polygon display="none" fill="#03A9F4" points="0,0 64.7,0 64.7,64.7 0,64.7 		"/>
		<g>
			<path fill="#03A9F4" d="M31.914,3.842c4.82-1.917,10.659,1.658,11.372,6.737c1.021,5.014-3.324,10.23-8.459,10.061
				c-4.902,0.202-9.204-4.44-8.719-9.292C26.357,7.999,28.727,4.917,31.914,3.842L31.914,3.842z"/>
		</g>
		<g>
			<path fill="#03A9F4" d="M6.729,12.584c-2.03-1.812,0.267-5.387,2.791-4.4c5.322,3.526,10.319,7.562,15.544,11.242
				c1.172,0.906,2.596,1.658,3.235,3.065c1.625,3.138,3.187,6.3,4.771,9.454c0.081-2.823,1.529-5.896-0.235-8.468
				c-0.298-1.909,2.167-2.911,3.438-1.561c0.979,1.229,0.017,2.442-0.59,3.566c0.25,2.151,0.519,4.294,0.752,6.446
				c1.771-3.518,3.519-7.044,5.338-10.538c1.908,1.334,3.817,2.669,5.726,3.995c-0.518,4.303-0.615,8.638-1.1,12.94
				c-6.777-0.056-13.555-0.08-20.324-0.008c-1.302-3.994-2.458-8.031-3.745-12.034c-0.299-0.971-1.181-1.569-1.893-2.224
				C15.868,20.235,11.209,16.507,6.729,12.584L6.729,12.584z"/>
		</g>
		<g>
			<path fill="#03A9F4" d="M48.655,18.82c2.612-2.798,7.133,0.396,6.059,3.866c1.649,1.787,3.379,3.494,5.186,5.127
				c0.211,5.993,0.02,11.986,0.089,17.979c-2.563,0-5.118,0.008-7.687-0.017c0.041,5.185,0.011,10.369,0.025,15.545
				c-1.584,0.017-3.17,0.032-4.748,0.048c-0.057-4.438,0.123-8.889-0.063-13.32c-0.232-0.191-0.688-0.563-0.914-0.752
				c-7.449-0.178-14.914,0-22.371-0.082c-0.833,0.011-2.37-0.088-2.386,1.136c-0.218,4.323-0.016,8.659-0.089,12.993
				c-1.553,0-3.114-0.008-4.667-0.016c-0.008-5.184,0.024-10.367-0.008-15.553c-2.564,0.018-5.12,0.018-7.675,0.023
				c0-1.608-0.024-3.229-0.024-4.836c15.843-0.041,31.678,0,47.522-0.018c-0.03-3.922,0.05-7.845-0.063-11.759
				c-1.471-1.416-2.912-2.855-4.393-4.262C48.938,26.066,45.784,21.392,48.655,18.82L48.655,18.82z"/>
		</g>
		<g>
			<path fill="#03A9F4" d="M24.408,49.851c6.842,0.073,13.684,0.058,20.534,0.009c0.016,3.816-0.016,7.643,0.008,11.46
				c-6.85,0.081-13.708,0.032-20.559,0.024C24.4,57.51,24.384,53.685,24.408,49.851L24.408,49.851z"/>
		</g>
	</g>
</g>
<text transform="matrix(1 0 0 1 -29.3179 8.0151)" fill="#F44336" font-family="'MyriadPro-Regular'" font-size="12">color</text>
</svg>
